<?xml version="1.0" encoding="UTF-8" standalone="no"?>
<!-- Created with Inkscape (http://www.inkscape.org/) -->

<svg
   xmlns:dc="http://purl.org/dc/elements/1.1/"
   xmlns:cc="http://creativecommons.org/ns#"
   xmlns:rdf="http://www.w3.org/1999/02/22-rdf-syntax-ns#"
   xmlns:svg="http://www.w3.org/2000/svg"
   xmlns="http://www.w3.org/2000/svg"
   xmlns:sodipodi="http://sodipodi.sourceforge.net/DTD/sodipodi-0.dtd"
   xmlns:inkscape="http://www.inkscape.org/namespaces/inkscape"
   width="167.17339mm"
   height="47.672405mm"
   viewBox="0 0 167.17339 47.672405"
   version="1.1"
   id="svg8"
   inkscape:version="0.92.4 (5da689c313, 2019-01-14)"
   sodipodi:docname="logo.svg">
  <defs
     id="defs2" />
  <sodipodi:namedview
     id="base"
     pagecolor="#ffffff"
     bordercolor="#666666"
     borderopacity="1.0"
     inkscape:pageopacity="0.0"
     inkscape:pageshadow="2"
     inkscape:zoom="0.35"
     inkscape:cx="-113.66503"
     inkscape:cy="-509.20639"
     inkscape:document-units="mm"
     inkscape:current-layer="layer1"
     showgrid="false"
     fit-margin-top="0"
     fit-margin-left="0"
     fit-margin-right="0"
     fit-margin-bottom="0"
     inkscape:window-width="1920"
     inkscape:window-height="1017"
     inkscape:window-x="-8"
     inkscape:window-y="-8"
     inkscape:window-maximized="1" />
  <metadata
     id="metadata5">
    <rdf:RDF>
      <cc:Work
         rdf:about="">
        <dc:format>image/svg+xml</dc:format>
        <dc:type
           rdf:resource="http://purl.org/dc/dcmitype/StillImage" />
        <dc:title></dc:title>
      </cc:Work>
    </rdf:RDF>
  </metadata>
  <g
     inkscape:label="Camada 1"
     inkscape:groupmode="layer"
     id="layer1"
     transform="translate(260.87625,-101.37087)">
    <text
       xml:space="preserve"
       style="font-style:normal;font-weight:normal;font-size:42.53568649px;line-height:1.25;font-family:sans-serif;letter-spacing:0px;word-spacing:0px;fill:#ffffff;fill-opacity:1;stroke:none;stroke-width:1.06339216"
       x="-261.34415"
       y="140.09456"
       id="text817"><tspan
         sodipodi:role="line"
         id="tspan815"
         x="-261.34415"
         y="140.09456"
         style="font-style:normal;font-variant:normal;font-weight:normal;font-stretch:normal;font-family:'Bebas Neue';-inkscape-font-specification:'Bebas Neue';fill:#ffffff;stroke-width:1.06339216">XoCorona</tspan></text>
    <path
       style="fill:#00ffb0;fill-opacity:1;stroke-width:0.33605376"
       d="m -114.48894,101.37098 c -0.32906,0.004 -0.69113,0.12259 -1.17255,0.34195 -0.80602,0.36724 -1.56509,1.56685 -1.56509,2.47337 0,0.25436 0.38194,0.91643 0.84881,1.47127 1.43842,1.70947 1.65391,2.80641 0.89048,4.53229 -0.60644,1.37094 -0.82478,1.54713 -2.53325,2.04381 -1.02829,0.29893 -2.10205,0.63268 -2.38614,0.7417 -0.40528,0.15551 -0.51654,-0.0603 -0.51654,-1.0021 0,-0.87418 -0.19109,-1.30266 -0.70338,-1.57683 -1.76525,-0.94473 -3.60112,0.88715 -2.52899,2.52344 0.30773,0.46965 0.7828,0.85384 1.05578,0.85384 0.83718,0 0.56296,0.52516 -1.05126,2.0131 -1.40228,1.29258 -1.67168,1.40983 -2.86926,1.2492 -1.87871,-0.25199 -2.88629,-1.03555 -3.35856,-2.61183 -0.22553,-0.75273 -0.71908,-1.58504 -1.09681,-1.84961 -2.20751,-1.54619 -4.96102,0.83439 -3.72645,3.22179 0.60429,1.16857 1.46526,1.4712 3.3725,1.1852 1.81023,-0.27147 3.28039,0.40783 4.03317,1.86355 0.46333,0.89599 0.4762,1.32485 0.10077,3.35482 -0.41422,2.23974 -0.68029,2.71066 -1.1248,1.99142 -0.3227,-0.52213 -2.07661,-0.39561 -2.66436,0.19214 -0.29044,0.29044 -0.52814,0.84561 -0.52814,1.23372 0,1.57384 2.08653,2.56079 3.02449,1.43062 0.6888,-0.82995 0.86465,-0.6056 1.31952,1.6829 0.38358,1.92974 0.3706,2.28475 -0.11096,3.01971 -1.10604,1.68804 -2.36634,2.15437 -4.60197,1.7029 -1.0049,-0.20294 -1.36909,-0.10656 -2.15633,0.5706 -1.83121,1.57514 -0.83582,4.3937 1.55167,4.3937 1.19334,0 2.65389,-1.35013 2.65389,-2.45325 0,-1.0549 1.88813,-2.36344 3.41018,-2.36344 1.12166,0 1.63741,0.26027 3.1383,1.58354 l 1.79619,1.58354 -0.9799,0.59589 c -1.69175,1.02881 -1.11457,3.29418 0.83925,3.29418 1.38674,0 2.00111,-0.6866 1.80574,-2.01775 -0.12254,-0.83475 -0.0482,-0.98345 0.41834,-0.83538 0.31211,0.0991 1.21694,0.36803 2.01065,0.59783 2.88576,0.8355 3.74416,3.81513 1.75257,6.08343 -1.29992,1.48052 -1.37972,2.62893 -0.2604,3.74825 0.97955,0.97954 2.49545,1.0825 3.48645,0.23678 1.05606,-0.90125 1.09663,-2.74129 0.0828,-3.75509 -0.83478,-0.83477 -1.3696,-1.84463 -1.3696,-2.58576 0,-0.96302 1.36586,-3.48864 1.88665,-3.48864 0.26537,0 1.31044,-0.29105 2.32239,-0.64673 l 1.83994,-0.64673 -0.20788,0.82829 c -0.39782,1.58503 2.00158,2.90568 3.16514,1.74212 0.95265,-0.95265 0.12538,-3.29328 -1.16391,-3.29328 -0.30237,0 0.12423,-0.61734 1.04507,-1.51231 1.35769,-1.31953 1.7413,-1.51218 3.01004,-1.51218 1.84985,0 2.939269,0.83519 3.705149,2.84062 0.43433,1.13728 0.8138,1.58965 1.48018,1.76483 2.01813,0.53055 3.4165,-0.46569 3.4165,-2.43402 0,-1.5777 -1.39401,-2.6563 -3.02436,-2.34008 -2.4887,0.48272 -3.458119,0.0806 -4.713059,-1.95503 -0.52406,-0.85007 -0.53648,-1.10592 -0.12001,-2.48976 0.25531,-0.84829 0.46428,-1.89641 0.46428,-2.32911 0,-0.93385 0.23503,-0.98217 1.07578,-0.2213 1.482059,1.34125 3.806049,-1.08628 2.461889,-2.57157 -0.74081,-0.81858 -2.27311,-0.89222 -2.898039,-0.13923 -0.39565,0.47673 -0.50249,0.34328 -0.87473,-1.09217 -0.56686,-2.18589 -0.54292,-3.00963 0.1169,-4.01664 0.89472,-1.3655 2.195819,-1.85746 4.268399,-1.61387 1.56997,0.18453 1.91249,0.11687 2.52938,-0.50001 0.94047,-0.94047 0.93253,-2.62148 -0.0172,-3.63238 -1.44216,-1.53511 -3.69619,-0.70544 -4.31369,1.58779 -0.41763,1.55094 -1.418669,2.32341 -3.345799,2.5819 -1.2638,0.16951 -1.48163,0.0682 -3.12127,-1.45193 -1.93685,-1.79573 -2.19553,-2.15129 -1.56508,-2.15129 0.65546,0 1.65077,-1.04445 1.65077,-1.73232 0,-0.81129 -1.16944,-1.96432 -1.99233,-1.96432 -0.94358,0 -1.70431,0.91068 -1.70431,2.04032 0,1.12634 -0.17598,1.15216 -2.52048,0.36918 -1.31567,-0.43939 -1.81125,-0.81638 -2.28433,-1.73735 -0.78164,-1.52167 -0.53907,-3.17544 0.6475,-4.41396 1.22696,-1.28065 1.22459,-2.81396 -0.006,-3.87252 -0.60898,-0.52382 -1.01937,-0.76183 -1.50031,-0.75576 z m -0.11665,11.9235 a 11.912641,11.912641 0 0 1 11.91266,11.91253 11.912641,11.912641 0 0 1 -11.91266,11.91266 11.912641,11.912641 0 0 1 -11.91266,-11.91266 11.912641,11.912641 0 0 1 11.91266,-11.91253 z m 0,1.73515 a 10.177467,10.177467 0 0 0 -10.1775,10.17738 10.177467,10.177467 0 0 0 0.30633,2.43479 l 18.22203,-8.23176 a 10.177467,10.177467 0 0 0 -8.35086,-4.38041 z m 9.63814,6.94785 -18.43262,8.32686 a 10.177467,10.177467 0 0 0 8.79448,5.08017 10.177467,10.177467 0 0 0 10.17751,-10.1775 10.177467,10.177467 0 0 0 -0.53937,-3.22953 z"
       id="path845"
       inkscape:connector-curvature="0" />
  </g>
</svg>
